<?xml version="1.0" encoding="UTF-8" standalone="no"?>
<!-- Created with Inkscape (http://www.inkscape.org/) -->

<svg
   xmlns:dc="http://purl.org/dc/elements/1.1/"
   xmlns:cc="http://creativecommons.org/ns#"
   xmlns:rdf="http://www.w3.org/1999/02/22-rdf-syntax-ns#"
   xmlns:svg="http://www.w3.org/2000/svg"
   xmlns="http://www.w3.org/2000/svg"
   xmlns:sodipodi="http://sodipodi.sourceforge.net/DTD/sodipodi-0.dtd"
   xmlns:inkscape="http://www.inkscape.org/namespaces/inkscape"
   width="210mm"
   height="297mm"
   viewBox="0 0 744.09448819 1052.3622047"
   id="svg2"
   version="1.1"
   inkscape:version="0.91 r13725"
   sodipodi:docname="mask.svg">
  <defs
     id="defs4">
    <clipPath
       id="clipPath4152"
       clipPathUnits="userSpaceOnUse">
      <path
         inkscape:connector-curvature="0"
         id="path4154"
         d="m 180,180 5580,0 0,7920 -5580,0 0,-7920 z" />
    </clipPath>
    <clipPath
       id="clipPath9692"
       clipPathUnits="userSpaceOnUse">
      <path
         inkscape:connector-curvature="0"
         id="path9694"
         d="m 180,180 5580,0 0,7920 -5580,0 0,-7920 z" />
    </clipPath>
    <clipPath
       id="clipPath10186"
       clipPathUnits="userSpaceOnUse">
      <path
         inkscape:connector-curvature="0"
         id="path10188"
         d="m 180,180 5580,0 0,7920 -5580,0 0,-7920 z" />
    </clipPath>
    <clipPath
       id="clipPath10632"
       clipPathUnits="userSpaceOnUse">
      <path
         inkscape:connector-curvature="0"
         id="path10634"
         d="m 180,180 5580,0 0,7920 -5580,0 0,-7920 z" />
    </clipPath>
    <clipPath
       id="clipPath11369"
       clipPathUnits="userSpaceOnUse">
      <path
         inkscape:connector-curvature="0"
         id="path11371"
         d="m 180,180 5580,0 0,7920 -5580,0 0,-7920 z" />
    </clipPath>
    <clipPath
       id="clipPath12106"
       clipPathUnits="userSpaceOnUse">
      <path
         inkscape:connector-curvature="0"
         id="path12108"
         d="m 180,180 5580,0 0,7920 -5580,0 0,-7920 z" />
    </clipPath>
    <clipPath
       id="clipPath12106-8"
       clipPathUnits="userSpaceOnUse">
      <path
         inkscape:connector-curvature="0"
         id="path12108-4"
         d="m 180,180 5580,0 0,7920 -5580,0 0,-7920 z" />
    </clipPath>
  </defs>
  <sodipodi:namedview
     id="base"
     pagecolor="#ffffff"
     bordercolor="#666666"
     borderopacity="1.0"
     inkscape:pageopacity="0.0"
     inkscape:pageshadow="2"
     inkscape:zoom="0.7"
     inkscape:cx="317.206"
     inkscape:cy="746.94097"
     inkscape:document-units="px"
     inkscape:current-layer="layer1"
     showgrid="false"
     inkscape:window-width="1280"
     inkscape:window-height="962"
     inkscape:window-x="-8"
     inkscape:window-y="-8"
     inkscape:window-maximized="1" />
  <metadata
     id="metadata7">
    <rdf:RDF>
      <cc:Work
         rdf:about="">
        <dc:format>image/svg+xml</dc:format>
        <dc:type
           rdf:resource="http://purl.org/dc/dcmitype/StillImage" />
        <dc:title></dc:title>
      </cc:Work>
    </rdf:RDF>
  </metadata>
  <g
     inkscape:label="Layer 1"
     inkscape:groupmode="layer"
     id="layer1">
    <g
       id="g13752">
      <path
         d="m 600.42218,530.54071 -445.42912,0"
         style="fill:none;stroke:#000000;stroke-width:1;stroke-linecap:round;stroke-linejoin:round;stroke-miterlimit:10;stroke-dasharray:none;stroke-opacity:1"
         id="path12110-2"
         inkscape:connector-curvature="0" />
      <path
         d="m 154.99306,530.54071 0,-196.83112"
         style="fill:none;stroke:#000000;stroke-width:1;stroke-linecap:round;stroke-linejoin:round;stroke-miterlimit:10;stroke-dasharray:none;stroke-opacity:1"
         id="path12112-6"
         inkscape:connector-curvature="0" />
      <path
         d="m 154.99306,333.70959 445.42912,0"
         style="fill:none;stroke:#000000;stroke-width:1;stroke-linecap:round;stroke-linejoin:round;stroke-miterlimit:10;stroke-dasharray:none;stroke-opacity:1"
         id="path12114-7"
         inkscape:connector-curvature="0" />
      <path
         d="m 600.42218,333.70959 0,196.83112"
         style="fill:none;stroke:#000000;stroke-width:1;stroke-linecap:round;stroke-linejoin:round;stroke-miterlimit:10;stroke-dasharray:none;stroke-opacity:1"
         id="path12116-8"
         inkscape:connector-curvature="0" />
      <path
         d="m 585.48718,513.66571 c 0,-2.93499 -2.38,-5.31487 -5.315,-5.31487 -2.935,0 -5.315,2.37988 -5.315,5.31487 0,2.93513 2.38,5.31501 5.315,5.31501 2.935,0 5.315,-2.37988 5.315,-5.31501"
         style="fill:none;stroke:#000000;stroke-width:1;stroke-linecap:round;stroke-linejoin:round;stroke-miterlimit:10;stroke-dasharray:none;stroke-opacity:1"
         id="path12118-1"
         inkscape:connector-curvature="0" />
      <path
         d="m 585.84718,513.66571 c 0,-3.13374 -2.54125,-5.67474 -5.675,-5.67474 -3.13375,0 -5.675,2.541 -5.675,5.67474 0,3.13376 2.54125,5.67525 5.675,5.67525 3.13375,0 5.675,-2.54149 5.675,-5.67525"
         style="fill:#000000;fill-opacity:1;fill-rule:nonzero;stroke:none"
         id="path12120-1"
         inkscape:connector-curvature="0" />
      <path
         d="m 175.98718,514.79071 c 0,-2.93499 -2.37987,-5.31487 -5.31487,-5.31487 -2.93513,0 -5.315,2.37988 -5.315,5.31487 0,2.93513 2.37987,5.31501 5.315,5.31501 2.935,0 5.31487,-2.37988 5.31487,-5.31501"
         style="fill:none;stroke:#000000;stroke-width:1;stroke-linecap:round;stroke-linejoin:round;stroke-miterlimit:10;stroke-dasharray:none;stroke-opacity:1"
         id="path12122-1"
         inkscape:connector-curvature="0" />
      <path
         d="m 176.34706,514.79071 c 0,-3.13374 -2.541,-5.67474 -5.67475,-5.67474 -3.13375,0 -5.67475,2.541 -5.67475,5.67474 0,3.13376 2.541,5.67525 5.67475,5.67525 3.13375,0 5.67475,-2.54149 5.67475,-5.67525"
         style="fill:#000000;fill-opacity:1;fill-rule:nonzero;stroke:none"
         id="path12124-7"
         inkscape:connector-curvature="0" />
      <path
         d="m 175.98718,350.54084 c 0,-2.935 -2.37987,-5.315 -5.31487,-5.315 -2.93513,0 -5.315,2.38 -5.315,5.315 0,2.935 2.37987,5.315 5.315,5.315 2.935,0 5.31487,-2.38 5.31487,-5.315"
         style="fill:none;stroke:#000000;stroke-width:1;stroke-linecap:round;stroke-linejoin:round;stroke-miterlimit:10;stroke-dasharray:none;stroke-opacity:1"
         id="path12126-5"
         inkscape:connector-curvature="0" />
      <path
         d="m 176.34706,350.54084 c 0,-3.13375 -2.541,-5.675 -5.67475,-5.675 -3.13375,0 -5.67475,2.54125 -5.67475,5.675 0,3.13375 2.541,5.675 5.67475,5.675 3.13375,0 5.67475,-2.54125 5.67475,-5.675"
         style="fill:#000000;fill-opacity:1;fill-rule:nonzero;stroke:none"
         id="path12128-1"
         inkscape:connector-curvature="0" />
      <path
         d="m 585.48718,350.54084 c 0,-2.935 -2.38,-5.315 -5.315,-5.315 -2.935,0 -5.315,2.38 -5.315,5.315 0,2.935 2.38,5.315 5.315,5.315 2.935,0 5.315,-2.38 5.315,-5.315"
         style="fill:none;stroke:#000000;stroke-width:1;stroke-linecap:round;stroke-linejoin:round;stroke-miterlimit:10;stroke-dasharray:none;stroke-opacity:1"
         id="path12130-8"
         inkscape:connector-curvature="0" />
      <path
         d="m 585.84718,350.54084 c 0,-3.13375 -2.54125,-5.675 -5.675,-5.675 -3.13375,0 -5.675,2.54125 -5.675,5.675 0,3.13375 2.54125,5.675 5.675,5.675 3.13375,0 5.675,-2.54125 5.675,-5.675"
         style="fill:#000000;fill-opacity:1;fill-rule:nonzero;stroke:none"
         id="path12132-3"
         inkscape:connector-curvature="0" />
      <path
         d="m 580.17218,305.54084 0,45"
         style="fill:none;stroke:#000000;stroke-width:1.44000006;stroke-linecap:round;stroke-linejoin:round;stroke-miterlimit:10;stroke-dasharray:none;stroke-opacity:1"
         id="path12134-2"
         inkscape:connector-curvature="0" />
      <path
         d="m 580.17218,350.54084 45,0"
         style="fill:none;stroke:#000000;stroke-width:1.44000006;stroke-linecap:round;stroke-linejoin:round;stroke-miterlimit:10;stroke-dasharray:none;stroke-opacity:1"
         id="path12136-6"
         inkscape:connector-curvature="0" />
      <path
         d="m 170.67231,301.04084 0,49.5"
         style="fill:none;stroke:#000000;stroke-width:1.44000006;stroke-linecap:round;stroke-linejoin:round;stroke-miterlimit:10;stroke-dasharray:none;stroke-opacity:1"
         id="path12138-6"
         inkscape:connector-curvature="0" />
      <path
         d="m 580.17218,513.66571 0,45"
         style="fill:none;stroke:#000000;stroke-width:1.44000006;stroke-linecap:round;stroke-linejoin:round;stroke-miterlimit:10;stroke-dasharray:none;stroke-opacity:1"
         id="path12140-5"
         inkscape:connector-curvature="0" />
      <path
         d="m 170.67231,514.79071 0,51.75"
         style="fill:none;stroke:#000000;stroke-width:1.44000006;stroke-linecap:round;stroke-linejoin:round;stroke-miterlimit:10;stroke-dasharray:none;stroke-opacity:1"
         id="path12142-9"
         inkscape:connector-curvature="0" />
      <path
         d="m 121.17231,350.54084 49.5,0"
         style="fill:none;stroke:#000000;stroke-width:1.44000006;stroke-linecap:round;stroke-linejoin:round;stroke-miterlimit:10;stroke-dasharray:none;stroke-opacity:1"
         id="path12144-4"
         inkscape:connector-curvature="0" />
      <path
         d="m 118.92231,514.79071 51.75,0"
         style="fill:none;stroke:#000000;stroke-width:1.44000006;stroke-linecap:round;stroke-linejoin:round;stroke-miterlimit:10;stroke-dasharray:none;stroke-opacity:1"
         id="path12146-6"
         inkscape:connector-curvature="0" />
      <path
         d="m 580.17218,513.66571 42.75,0"
         style="fill:none;stroke:#000000;stroke-width:1.44000006;stroke-linecap:round;stroke-linejoin:round;stroke-miterlimit:10;stroke-dasharray:none;stroke-opacity:1"
         id="path12148-7"
         inkscape:connector-curvature="0" />
      <path
         d="m 416.51843,440.49334 7.80664,0 0,-6.03516 -7.80664,0 0,6.03516 z"
         style="fill:#000000;fill-opacity:1;fill-rule:nonzero;stroke:none"
         id="path12150-6"
         inkscape:connector-curvature="0" />
      <path
         d="m 416.51843,451.12334 7.80664,0 0,-6.03466 -7.80664,0 0,6.03466 z"
         style="fill:#000000;fill-opacity:1;fill-rule:nonzero;stroke:none"
         id="path12152-2"
         inkscape:connector-curvature="0" />
      <path
         d="m 553.76843,451.74334 7.80664,0 0,-6.03516 -7.80664,0 0,6.03516 z"
         style="fill:#000000;fill-opacity:1;fill-rule:nonzero;stroke:none"
         id="path12154-2"
         inkscape:connector-curvature="0" />
      <path
         d="m 553.76843,462.37334 7.80664,0 0,-6.03466 -7.80664,0 0,6.03466 z"
         style="fill:#000000;fill-opacity:1;fill-rule:nonzero;stroke:none"
         id="path12156-8"
         inkscape:connector-curvature="0" />
      <path
         d="m 469.46468,437.69459 6.03516,0 0,-7.80664 -6.03516,0 0,7.80664 z"
         style="fill:#000000;fill-opacity:1;fill-rule:nonzero;stroke:none"
         id="path12158-7"
         inkscape:connector-curvature="0" />
      <path
         d="m 480.09468,437.69459 6.03516,0 0,-7.80664 -6.03516,0 0,7.80664 z"
         style="fill:#000000;fill-opacity:1;fill-rule:nonzero;stroke:none"
         id="path12160-9"
         inkscape:connector-curvature="0" />
      <path
         d="m 377.65093,414.44084 2.7002,0 0,-5.21973 -2.7002,0 0,5.21973 z"
         style="fill:#000000;fill-opacity:1;fill-rule:nonzero;stroke:none"
         id="path12162-5"
         inkscape:connector-curvature="0" />
      <path
         d="m 380.48593,414.44084 2.69971,0 0,-5.21973 -2.69971,0 0,5.21973 z"
         style="fill:#000000;fill-opacity:1;fill-rule:nonzero;stroke:none"
         id="path12164-5"
         inkscape:connector-curvature="0" />
      <path
         d="m 383.31968,414.44084 2.7002,0 0,-5.21973 -2.7002,0 0,5.21973 z"
         style="fill:#000000;fill-opacity:1;fill-rule:nonzero;stroke:none"
         id="path12166-6"
         inkscape:connector-curvature="0" />
      <path
         d="m 386.15468,414.44084 2.7002,0 0,-5.21973 -2.7002,0 0,5.21973 z"
         style="fill:#000000;fill-opacity:1;fill-rule:nonzero;stroke:none"
         id="path12168-2"
         inkscape:connector-curvature="0" />
      <path
         d="m 388.98968,414.44084 2.69971,0 0,-5.21973 -2.69971,0 0,5.21973 z"
         style="fill:#000000;fill-opacity:1;fill-rule:nonzero;stroke:none"
         id="path12170-4"
         inkscape:connector-curvature="0" />
      <path
         d="m 391.82468,414.44084 2.7002,0 0,-5.21973 -2.7002,0 0,5.21973 z"
         style="fill:#000000;fill-opacity:1;fill-rule:nonzero;stroke:none"
         id="path12172-8"
         inkscape:connector-curvature="0" />
      <path
         d="m 394.65843,414.44084 2.7002,0 0,-5.21973 -2.7002,0 0,5.21973 z"
         style="fill:#000000;fill-opacity:1;fill-rule:nonzero;stroke:none"
         id="path12174-9"
         inkscape:connector-curvature="0" />
      <path
         d="m 397.49343,414.44084 2.69971,0 0,-5.21973 -2.69971,0 0,5.21973 z"
         style="fill:#000000;fill-opacity:1;fill-rule:nonzero;stroke:none"
         id="path12176-1"
         inkscape:connector-curvature="0" />
      <path
         d="m 401.52218,418.46959 5.21973,0 0,-2.69971 -5.21973,0 0,2.69971 z"
         style="fill:#000000;fill-opacity:1;fill-rule:nonzero;stroke:none"
         id="path12178-0"
         inkscape:connector-curvature="0" />
      <path
         d="m 401.52218,421.30459 5.21973,0 0,-2.7002 -5.21973,0 0,2.7002 z"
         style="fill:#000000;fill-opacity:1;fill-rule:nonzero;stroke:none"
         id="path12180-6"
         inkscape:connector-curvature="0" />
      <path
         d="m 401.52218,424.13834 5.21973,0 0,-2.7002 -5.21973,0 0,2.7002 z"
         style="fill:#000000;fill-opacity:1;fill-rule:nonzero;stroke:none"
         id="path12182-9"
         inkscape:connector-curvature="0" />
      <path
         d="m 401.52218,426.97334 5.21973,0 0,-2.69971 -5.21973,0 0,2.69971 z"
         style="fill:#000000;fill-opacity:1;fill-rule:nonzero;stroke:none"
         id="path12184-6"
         inkscape:connector-curvature="0" />
      <path
         d="m 401.52218,429.80834 5.21973,0 0,-2.7002 -5.21973,0 0,2.7002 z"
         style="fill:#000000;fill-opacity:1;fill-rule:nonzero;stroke:none"
         id="path12186-9"
         inkscape:connector-curvature="0" />
      <path
         d="m 401.52218,432.64334 5.21973,0 0,-2.69971 -5.21973,0 0,2.69971 z"
         style="fill:#000000;fill-opacity:1;fill-rule:nonzero;stroke:none"
         id="path12188-6"
         inkscape:connector-curvature="0" />
      <path
         d="m 401.52218,435.47709 5.21973,0 0,-2.69971 -5.21973,0 0,2.69971 z"
         style="fill:#000000;fill-opacity:1;fill-rule:nonzero;stroke:none"
         id="path12190-1"
         inkscape:connector-curvature="0" />
      <path
         d="m 401.52218,438.31209 5.21973,0 0,-2.7002 -5.21973,0 0,2.7002 z"
         style="fill:#000000;fill-opacity:1;fill-rule:nonzero;stroke:none"
         id="path12192-1"
         inkscape:connector-curvature="0" />
      <path
         d="m 397.49343,444.86084 2.69971,0 0,-5.22021 -2.69971,0 0,5.22021 z"
         style="fill:#000000;fill-opacity:1;fill-rule:nonzero;stroke:none"
         id="path12194-2"
         inkscape:connector-curvature="0" />
      <path
         d="m 394.65843,444.86084 2.7002,0 0,-5.22021 -2.7002,0 0,5.22021 z"
         style="fill:#000000;fill-opacity:1;fill-rule:nonzero;stroke:none"
         id="path12196-1"
         inkscape:connector-curvature="0" />
      <path
         d="m 391.82468,444.86084 2.7002,0 0,-5.22021 -2.7002,0 0,5.22021 z"
         style="fill:#000000;fill-opacity:1;fill-rule:nonzero;stroke:none"
         id="path12198-4"
         inkscape:connector-curvature="0" />
      <path
         d="m 388.98968,444.86084 2.69971,0 0,-5.22021 -2.69971,0 0,5.22021 z"
         style="fill:#000000;fill-opacity:1;fill-rule:nonzero;stroke:none"
         id="path12200-0"
         inkscape:connector-curvature="0" />
      <path
         d="m 386.15468,444.86084 2.7002,0 0,-5.22021 -2.7002,0 0,5.22021 z"
         style="fill:#000000;fill-opacity:1;fill-rule:nonzero;stroke:none"
         id="path12202-5"
         inkscape:connector-curvature="0" />
      <path
         d="m 383.31968,444.86084 2.7002,0 0,-5.22021 -2.7002,0 0,5.22021 z"
         style="fill:#000000;fill-opacity:1;fill-rule:nonzero;stroke:none"
         id="path12204-0"
         inkscape:connector-curvature="0" />
      <path
         d="m 380.48593,444.86084 2.69971,0 0,-5.22021 -2.69971,0 0,5.22021 z"
         style="fill:#000000;fill-opacity:1;fill-rule:nonzero;stroke:none"
         id="path12206-9"
         inkscape:connector-curvature="0" />
      <path
         d="m 377.65093,444.86084 2.7002,0 0,-5.22021 -2.7002,0 0,5.22021 z"
         style="fill:#000000;fill-opacity:1;fill-rule:nonzero;stroke:none"
         id="path12208-6"
         inkscape:connector-curvature="0" />
      <path
         d="m 371.10218,438.31209 5.22021,0 0,-2.7002 -5.22021,0 0,2.7002 z"
         style="fill:#000000;fill-opacity:1;fill-rule:nonzero;stroke:none"
         id="path12210-6"
         inkscape:connector-curvature="0" />
      <path
         d="m 371.10218,435.47709 5.22021,0 0,-2.69971 -5.22021,0 0,2.69971 z"
         style="fill:#000000;fill-opacity:1;fill-rule:nonzero;stroke:none"
         id="path12212-0"
         inkscape:connector-curvature="0" />
      <path
         d="m 371.10218,432.64334 5.22021,0 0,-2.69971 -5.22021,0 0,2.69971 z"
         style="fill:#000000;fill-opacity:1;fill-rule:nonzero;stroke:none"
         id="path12214-2"
         inkscape:connector-curvature="0" />
      <path
         d="m 371.10218,429.80834 5.22021,0 0,-2.7002 -5.22021,0 0,2.7002 z"
         style="fill:#000000;fill-opacity:1;fill-rule:nonzero;stroke:none"
         id="path12216-7"
         inkscape:connector-curvature="0" />
      <path
         d="m 371.10218,426.97334 5.22021,0 0,-2.69971 -5.22021,0 0,2.69971 z"
         style="fill:#000000;fill-opacity:1;fill-rule:nonzero;stroke:none"
         id="path12218-5"
         inkscape:connector-curvature="0" />
      <path
         d="m 371.10218,424.13834 5.22021,0 0,-2.7002 -5.22021,0 0,2.7002 z"
         style="fill:#000000;fill-opacity:1;fill-rule:nonzero;stroke:none"
         id="path12220-7"
         inkscape:connector-curvature="0" />
      <path
         d="m 371.10218,421.30459 5.22021,0 0,-2.7002 -5.22021,0 0,2.7002 z"
         style="fill:#000000;fill-opacity:1;fill-rule:nonzero;stroke:none"
         id="path12222-5"
         inkscape:connector-curvature="0" />
      <path
         d="m 371.10218,418.46959 5.22021,0 0,-2.69971 -5.22021,0 0,2.69971 z"
         style="fill:#000000;fill-opacity:1;fill-rule:nonzero;stroke:none"
         id="path12224-4"
         inkscape:connector-curvature="0" />
      <path
         d="m 572.79218,439.41584 5.76,0"
         style="fill:none;stroke:#000000;stroke-width:7.92000008;stroke-linecap:round;stroke-linejoin:round;stroke-miterlimit:10;stroke-dasharray:none;stroke-opacity:1"
         id="path12226-4"
         inkscape:connector-curvature="0" />
      <path
         d="m 572.79218,430.41584 5.76,0"
         style="fill:none;stroke:#000000;stroke-width:7.92000008;stroke-linecap:round;stroke-linejoin:round;stroke-miterlimit:10;stroke-dasharray:none;stroke-opacity:1"
         id="path12228-6"
         inkscape:connector-curvature="0" />
      <path
         d="m 483.42218,466.95622 0,5.6695"
         style="fill:none;stroke:#000000;stroke-width:7.80661249;stroke-linecap:round;stroke-linejoin:round;stroke-miterlimit:10;stroke-dasharray:none;stroke-opacity:1"
         id="path12230-2"
         inkscape:connector-curvature="0" />
      <path
         d="m 474.42218,466.95622 0,5.6695"
         style="fill:none;stroke:#000000;stroke-width:7.80661249;stroke-linecap:round;stroke-linejoin:round;stroke-miterlimit:10;stroke-dasharray:none;stroke-opacity:1"
         id="path12232-3"
         inkscape:connector-curvature="0" />
      <path
         d="m 465.42218,466.95622 0,5.6695"
         style="fill:none;stroke:#000000;stroke-width:7.80661249;stroke-linecap:round;stroke-linejoin:round;stroke-miterlimit:10;stroke-dasharray:none;stroke-opacity:1"
         id="path12234-4"
         inkscape:connector-curvature="0" />
      <path
         d="m 456.42218,466.95622 0,5.6695"
         style="fill:none;stroke:#000000;stroke-width:7.80661249;stroke-linecap:round;stroke-linejoin:round;stroke-miterlimit:10;stroke-dasharray:none;stroke-opacity:1"
         id="path12236-6"
         inkscape:connector-curvature="0" />
      <path
         d="m 447.42218,466.95622 0,5.6695"
         style="fill:none;stroke:#000000;stroke-width:7.80661249;stroke-linecap:round;stroke-linejoin:round;stroke-miterlimit:10;stroke-dasharray:none;stroke-opacity:1"
         id="path12238-5"
         inkscape:connector-curvature="0" />
      <path
         d="m 438.42218,466.95622 0,5.6695"
         style="fill:none;stroke:#000000;stroke-width:7.80661249;stroke-linecap:round;stroke-linejoin:round;stroke-miterlimit:10;stroke-dasharray:none;stroke-opacity:1"
         id="path12240-7"
         inkscape:connector-curvature="0" />
      <path
         d="m 429.42218,466.95622 0,5.6695"
         style="fill:none;stroke:#000000;stroke-width:7.80661249;stroke-linecap:round;stroke-linejoin:round;stroke-miterlimit:10;stroke-dasharray:none;stroke-opacity:1"
         id="path12242-1"
         inkscape:connector-curvature="0" />
      <path
         d="m 420.42218,466.95622 0,5.6695"
         style="fill:none;stroke:#000000;stroke-width:7.80661249;stroke-linecap:round;stroke-linejoin:round;stroke-miterlimit:10;stroke-dasharray:none;stroke-opacity:1"
         id="path12244-8"
         inkscape:connector-curvature="0" />
      <path
         d="m 411.42218,466.95622 0,5.6695"
         style="fill:none;stroke:#000000;stroke-width:7.80661249;stroke-linecap:round;stroke-linejoin:round;stroke-miterlimit:10;stroke-dasharray:none;stroke-opacity:1"
         id="path12246-2"
         inkscape:connector-curvature="0" />
      <path
         d="m 402.42218,466.95622 0,5.6695"
         style="fill:none;stroke:#000000;stroke-width:7.80661249;stroke-linecap:round;stroke-linejoin:round;stroke-miterlimit:10;stroke-dasharray:none;stroke-opacity:1"
         id="path12248-8"
         inkscape:connector-curvature="0" />
      <path
         d="m 393.42218,466.95622 0,5.6695"
         style="fill:none;stroke:#000000;stroke-width:7.80661249;stroke-linecap:round;stroke-linejoin:round;stroke-miterlimit:10;stroke-dasharray:none;stroke-opacity:1"
         id="path12250-6"
         inkscape:connector-curvature="0" />
      <path
         d="m 384.42218,466.95622 0,5.6695"
         style="fill:none;stroke:#000000;stroke-width:7.80661249;stroke-linecap:round;stroke-linejoin:round;stroke-miterlimit:10;stroke-dasharray:none;stroke-opacity:1"
         id="path12252-1"
         inkscape:connector-curvature="0" />
      <path
         d="m 375.42218,466.95622 0,5.6695"
         style="fill:none;stroke:#000000;stroke-width:7.80661249;stroke-linecap:round;stroke-linejoin:round;stroke-miterlimit:10;stroke-dasharray:none;stroke-opacity:1"
         id="path12254-7"
         inkscape:connector-curvature="0" />
      <path
         d="m 366.42218,466.95622 0,5.6695"
         style="fill:none;stroke:#000000;stroke-width:7.80661249;stroke-linecap:round;stroke-linejoin:round;stroke-miterlimit:10;stroke-dasharray:none;stroke-opacity:1"
         id="path12256-8"
         inkscape:connector-curvature="0" />
      <path
         d="m 357.42218,466.95622 0,5.6695"
         style="fill:none;stroke:#000000;stroke-width:7.80661249;stroke-linecap:round;stroke-linejoin:round;stroke-miterlimit:10;stroke-dasharray:none;stroke-opacity:1"
         id="path12258-3"
         inkscape:connector-curvature="0" />
      <path
         d="m 348.42218,466.95622 0,5.6695"
         style="fill:none;stroke:#000000;stroke-width:7.80661249;stroke-linecap:round;stroke-linejoin:round;stroke-miterlimit:10;stroke-dasharray:none;stroke-opacity:1"
         id="path12260-9"
         inkscape:connector-curvature="0" />
      <path
         d="m 507.33968,469.79071 c 0,-2.44575 -1.98375,-4.42862 -4.42875,-4.42862 -2.44625,0 -4.43,1.98287 -4.43,4.42862 0,2.44575 1.98375,4.42925 4.43,4.42925 2.445,0 4.42875,-1.9835 4.42875,-4.42925"
         style="fill:none;stroke:#000000;stroke-width:1;stroke-linecap:round;stroke-linejoin:round;stroke-miterlimit:10;stroke-dasharray:none;stroke-opacity:1"
         id="path12262-7"
         inkscape:connector-curvature="0" />
      <path
         d="m 507.69968,469.79071 c 0,-2.6445 -2.145,-4.78862 -4.78875,-4.78862 -2.645,0 -4.79,2.14412 -4.79,4.78862 0,2.6445 2.145,4.78913 4.79,4.78913 2.64375,0 4.78875,-2.14463 4.78875,-4.78913"
         style="fill:#000000;fill-opacity:1;fill-rule:nonzero;stroke:none"
         id="path12264-5"
         inkscape:connector-curvature="0" />
      <path
         d="m 241.59218,469.79071 c 0,-2.44575 -1.98375,-4.42862 -4.43,-4.42862 -2.445,0 -4.42875,1.98287 -4.42875,4.42862 0,2.44575 1.98375,4.42925 4.42875,4.42925 2.44625,0 4.43,-1.9835 4.43,-4.42925"
         style="fill:none;stroke:#000000;stroke-width:1;stroke-linecap:round;stroke-linejoin:round;stroke-miterlimit:10;stroke-dasharray:none;stroke-opacity:1"
         id="path12266-2"
         inkscape:connector-curvature="0" />
      <path
         d="m 241.95218,469.79071 c 0,-2.6445 -2.145,-4.78862 -4.79,-4.78862 -2.64375,0 -4.78875,2.14412 -4.78875,4.78862 0,2.6445 2.145,4.78913 4.78875,4.78913 2.645,0 4.79,-2.14463 4.79,-4.78913"
         style="fill:#000000;fill-opacity:1;fill-rule:nonzero;stroke:none"
         id="path12268-8"
         inkscape:connector-curvature="0" />
      <path
         d="m 507.33968,359.94834 c 0,-2.44625 -1.98375,-4.42875 -4.42875,-4.42875 -2.44625,0 -4.43,1.9825 -4.43,4.42875 0,2.44625 1.98375,4.42875 4.43,4.42875 2.445,0 4.42875,-1.9825 4.42875,-4.42875"
         style="fill:none;stroke:#000000;stroke-width:1;stroke-linecap:round;stroke-linejoin:round;stroke-miterlimit:10;stroke-dasharray:none;stroke-opacity:1"
         id="path12270-6"
         inkscape:connector-curvature="0" />
      <path
         d="m 507.69968,359.94834 c 0,-2.645 -2.145,-4.78875 -4.78875,-4.78875 -2.645,0 -4.79,2.14375 -4.79,4.78875 0,2.645 2.145,4.78875 4.79,4.78875 2.64375,0 4.78875,-2.14375 4.78875,-4.78875"
         style="fill:#000000;fill-opacity:1;fill-rule:nonzero;stroke:none"
         id="path12272-8"
         inkscape:connector-curvature="0" />
      <path
         d="m 241.59218,359.94834 c 0,-2.44625 -1.98375,-4.42875 -4.43,-4.42875 -2.445,0 -4.42875,1.9825 -4.42875,4.42875 0,2.44625 1.98375,4.42875 4.42875,4.42875 2.44625,0 4.43,-1.9825 4.43,-4.42875"
         style="fill:none;stroke:#000000;stroke-width:1;stroke-linecap:round;stroke-linejoin:round;stroke-miterlimit:10;stroke-dasharray:none;stroke-opacity:1"
         id="path12274-8"
         inkscape:connector-curvature="0" />
      <path
         d="m 241.95218,359.94834 c 0,-2.645 -2.145,-4.78875 -4.79,-4.78875 -2.64375,0 -4.78875,2.14375 -4.78875,4.78875 0,2.645 2.145,4.78875 4.78875,4.78875 2.645,0 4.79,-2.14375 4.79,-4.78875"
         style="fill:#000000;fill-opacity:1;fill-rule:nonzero;stroke:none"
         id="path12276-5"
         inkscape:connector-curvature="0" />
      <path
         d="m 396.99468,397.79084 c 0,-1.9725 -1.6,-3.5725 -3.5725,-3.5725 -1.9725,0 -3.57125,1.6 -3.57125,3.5725 0,1.9725 1.59875,3.57125 3.57125,3.57125 1.9725,0 3.5725,-1.59875 3.5725,-3.57125"
         style="fill:#000000;fill-opacity:1;fill-rule:nonzero;stroke:none"
         id="path12278-1"
         inkscape:connector-curvature="0" />
      <path
         d="m 405.99468,397.79084 c 0,-1.9725 -1.6,-3.5725 -3.5725,-3.5725 -1.9725,0 -3.57125,1.6 -3.57125,3.5725 0,1.9725 1.59875,3.57125 3.57125,3.57125 1.9725,0 3.5725,-1.59875 3.5725,-3.57125"
         style="fill:#000000;fill-opacity:1;fill-rule:nonzero;stroke:none"
         id="path12280-8"
         inkscape:connector-curvature="0" />
      <path
         d="m 220.29093,429.35834 4.26319,0 0,-5.68066 -4.26319,0 0,5.68066 z"
         style="fill:#000000;fill-opacity:1;fill-rule:nonzero;stroke:none"
         id="path12282-1"
         inkscape:connector-curvature="0" />
      <path
         d="m 216.92431,437.15459 4.26367,0 0,-5.68066 -4.26367,0 0,5.68066 z"
         style="fill:#000000;fill-opacity:1;fill-rule:nonzero;stroke:none"
         id="path12284-4"
         inkscape:connector-curvature="0" />
      <path
         d="m 223.65718,437.15459 4.26319,0 0,-5.68066 -4.26319,0 0,5.68066 z"
         style="fill:#000000;fill-opacity:1;fill-rule:nonzero;stroke:none"
         id="path12286-9"
         inkscape:connector-curvature="0" />
      <path
         d="m 512.70218,435.21459 8.51514,0 0,-2.84619 -8.51514,0 0,2.84619 z"
         style="fill:#000000;fill-opacity:1;fill-rule:nonzero;stroke:none"
         id="path12288-3"
         inkscape:connector-curvature="0" />
      <path
         d="m 531.12718,435.21459 8.51563,0 0,-2.84619 -8.51563,0 0,2.84619 z"
         style="fill:#000000;fill-opacity:1;fill-rule:nonzero;stroke:none"
         id="path12290-1"
         inkscape:connector-curvature="0" />
      <path
         d="m 512.70218,439.71459 8.51514,0 0,-2.84619 -8.51514,0 0,2.84619 z"
         style="fill:#000000;fill-opacity:1;fill-rule:nonzero;stroke:none"
         id="path12292-4"
         inkscape:connector-curvature="0" />
      <path
         d="m 512.70218,430.71459 8.51514,0 0,-2.84619 -8.51514,0 0,2.84619 z"
         style="fill:#000000;fill-opacity:1;fill-rule:nonzero;stroke:none"
         id="path12294-8"
         inkscape:connector-curvature="0" />
      <path
         d="m 512.70218,426.21459 8.51514,0 0,-2.84619 -8.51514,0 0,2.84619 z"
         style="fill:#000000;fill-opacity:1;fill-rule:nonzero;stroke:none"
         id="path12296-0"
         inkscape:connector-curvature="0" />
      <path
         d="m 531.12718,439.71459 8.51563,0 0,-2.84619 -8.51563,0 0,2.84619 z"
         style="fill:#000000;fill-opacity:1;fill-rule:nonzero;stroke:none"
         id="path12298-5"
         inkscape:connector-curvature="0" />
      <path
         d="m 531.12718,430.71459 8.51563,0 0,-2.84619 -8.51563,0 0,2.84619 z"
         style="fill:#000000;fill-opacity:1;fill-rule:nonzero;stroke:none"
         id="path12300-4"
         inkscape:connector-curvature="0" />
      <path
         d="m 531.12718,426.21459 8.51563,0 0,-2.84619 -8.51563,0 0,2.84619 z"
         style="fill:#000000;fill-opacity:1;fill-rule:nonzero;stroke:none"
         id="path12302-3"
         inkscape:connector-curvature="0" />
      <path
         d="m 340.36843,418.44709 7.1084,0 0,-6.38916 -7.1084,0 0,6.38916 z"
         style="fill:#000000;fill-opacity:1;fill-rule:nonzero;stroke:none"
         id="path12304-7"
         inkscape:connector-curvature="0" />
      <path
         d="m 340.36843,428.52459 7.1084,0 0,-6.38916 -7.1084,0 0,6.38916 z"
         style="fill:#000000;fill-opacity:1;fill-rule:nonzero;stroke:none"
         id="path12306-2"
         inkscape:connector-curvature="0" />
      <path
         d="m 511.14093,401.34459 6.38916,0 0,-7.1084 -6.38916,0 0,7.1084 z"
         style="fill:#000000;fill-opacity:1;fill-rule:nonzero;stroke:none"
         id="path12308-5"
         inkscape:connector-curvature="0" />
      <path
         d="m 501.06343,401.34459 6.38916,0 0,-7.1084 -6.38916,0 0,7.1084 z"
         style="fill:#000000;fill-opacity:1;fill-rule:nonzero;stroke:none"
         id="path12310-4"
         inkscape:connector-curvature="0" />
      <path
         d="m 455.11843,438.69709 7.1084,0 0,-6.38916 -7.1084,0 0,6.38916 z"
         style="fill:#000000;fill-opacity:1;fill-rule:nonzero;stroke:none"
         id="path12312-5"
         inkscape:connector-curvature="0" />
      <path
         d="m 455.11843,448.77459 7.1084,0 0,-6.38916 -7.1084,0 0,6.38916 z"
         style="fill:#000000;fill-opacity:1;fill-rule:nonzero;stroke:none"
         id="path12314-6"
         inkscape:connector-curvature="0" />
      <path
         d="m 404.26593,493.59496 6.38916,0 0,-7.1084 -6.38916,0 0,7.1084 z"
         style="fill:#000000;fill-opacity:1;fill-rule:nonzero;stroke:none"
         id="path12316-6"
         inkscape:connector-curvature="0" />
      <path
         d="m 394.18843,493.59496 6.38916,0 0,-7.1084 -6.38916,0 0,7.1084 z"
         style="fill:#000000;fill-opacity:1;fill-rule:nonzero;stroke:none"
         id="path12318-5"
         inkscape:connector-curvature="0" />
      <path
         d="m 295.18843,423.84459 6.38916,0 0,-7.1084 -6.38916,0 0,7.1084 z"
         style="fill:#000000;fill-opacity:1;fill-rule:nonzero;stroke:none"
         id="path12320-8"
         inkscape:connector-curvature="0" />
      <path
         d="m 305.26593,423.84459 6.38916,0 0,-7.1084 -6.38916,0 0,7.1084 z"
         style="fill:#000000;fill-opacity:1;fill-rule:nonzero;stroke:none"
         id="path12322-1"
         inkscape:connector-curvature="0" />
      <path
         d="m 322.36843,418.44709 7.1084,0 0,-6.38916 -7.1084,0 0,6.38916 z"
         style="fill:#000000;fill-opacity:1;fill-rule:nonzero;stroke:none"
         id="path12324-5"
         inkscape:connector-curvature="0" />
      <path
         d="m 322.36843,428.52459 7.1084,0 0,-6.38916 -7.1084,0 0,6.38916 z"
         style="fill:#000000;fill-opacity:1;fill-rule:nonzero;stroke:none"
         id="path12326-2"
         inkscape:connector-curvature="0" />
      <path
         d="m 353.68843,408.09459 6.38916,0 0,-7.1084 -6.38916,0 0,7.1084 z"
         style="fill:#000000;fill-opacity:1;fill-rule:nonzero;stroke:none"
         id="path12328-4"
         inkscape:connector-curvature="0" />
      <path
         d="m 363.76593,408.09459 6.38916,0 0,-7.1084 -6.38916,0 0,7.1084 z"
         style="fill:#000000;fill-opacity:1;fill-rule:nonzero;stroke:none"
         id="path12330-5"
         inkscape:connector-curvature="0" />
      <path
         d="m 340.36843,397.02459 7.1084,0 0,-6.38916 -7.1084,0 0,6.38916 z"
         style="fill:#000000;fill-opacity:1;fill-rule:nonzero;stroke:none"
         id="path12332-3"
         inkscape:connector-curvature="0" />
      <path
         d="m 340.36843,386.94709 7.1084,0 0,-6.38916 -7.1084,0 0,6.38916 z"
         style="fill:#000000;fill-opacity:1;fill-rule:nonzero;stroke:none"
         id="path12334-0"
         inkscape:connector-curvature="0" />
      <path
         d="m 475.36843,395.94709 7.1084,0 0,-6.38916 -7.1084,0 0,6.38916 z"
         style="fill:#000000;fill-opacity:1;fill-rule:nonzero;stroke:none"
         id="path12336-8"
         inkscape:connector-curvature="0" />
      <path
         d="m 475.36843,406.02459 7.1084,0 0,-6.38916 -7.1084,0 0,6.38916 z"
         style="fill:#000000;fill-opacity:1;fill-rule:nonzero;stroke:none"
         id="path12338-2"
         inkscape:connector-curvature="0" />
      <path
         d="m 457.18843,414.84459 6.38916,0 0,-7.1084 -6.38916,0 0,7.1084 z"
         style="fill:#000000;fill-opacity:1;fill-rule:nonzero;stroke:none"
         id="path12340-5"
         inkscape:connector-curvature="0" />
      <path
         d="m 467.26593,414.84459 6.38916,0 0,-7.1084 -6.38916,0 0,7.1084 z"
         style="fill:#000000;fill-opacity:1;fill-rule:nonzero;stroke:none"
         id="path12342-8"
         inkscape:connector-curvature="0" />
      <path
         d="m 511.14093,383.34459 6.38916,0 0,-7.1084 -6.38916,0 0,7.1084 z"
         style="fill:#000000;fill-opacity:1;fill-rule:nonzero;stroke:none"
         id="path12344-4"
         inkscape:connector-curvature="0" />
      <path
         d="m 501.06343,383.34459 6.38916,0 0,-7.1084 -6.38916,0 0,7.1084 z"
         style="fill:#000000;fill-opacity:1;fill-rule:nonzero;stroke:none"
         id="path12346-2"
         inkscape:connector-curvature="0" />
      <path
         d="m 186.32468,396.39084 0,-5.66875"
         style="fill:none;stroke:#000000;stroke-width:7.80661249;stroke-linecap:round;stroke-linejoin:round;stroke-miterlimit:10;stroke-dasharray:none;stroke-opacity:1"
         id="path12348-6"
         inkscape:connector-curvature="0" />
      <path
         d="m 186.32468,373.35959 0,-5.66875"
         style="fill:none;stroke:#000000;stroke-width:7.80661249;stroke-linecap:round;stroke-linejoin:round;stroke-miterlimit:10;stroke-dasharray:none;stroke-opacity:1"
         id="path12350-6"
         inkscape:connector-curvature="0" />
      <path
         d="m 202.26943,396.39084 0,-5.66875"
         style="fill:none;stroke:#000000;stroke-width:7.80661249;stroke-linecap:round;stroke-linejoin:round;stroke-miterlimit:10;stroke-dasharray:none;stroke-opacity:1"
         id="path12352-3"
         inkscape:connector-curvature="0" />
      <path
         d="m 202.26943,373.35959 0,-5.66875"
         style="fill:none;stroke:#000000;stroke-width:7.80661249;stroke-linecap:round;stroke-linejoin:round;stroke-miterlimit:10;stroke-dasharray:none;stroke-opacity:1"
         id="path12354-2"
         inkscape:connector-curvature="0" />
      <path
         d="m 186.32468,443.64084 0,-5.66875"
         style="fill:none;stroke:#000000;stroke-width:7.80661249;stroke-linecap:round;stroke-linejoin:round;stroke-miterlimit:10;stroke-dasharray:none;stroke-opacity:1"
         id="path12356-6"
         inkscape:connector-curvature="0" />
      <path
         d="m 186.32468,420.60959 0,-5.66875"
         style="fill:none;stroke:#000000;stroke-width:7.80661249;stroke-linecap:round;stroke-linejoin:round;stroke-miterlimit:10;stroke-dasharray:none;stroke-opacity:1"
         id="path12358-2"
         inkscape:connector-curvature="0" />
      <path
         d="m 202.26943,443.64084 0,-5.66875"
         style="fill:none;stroke:#000000;stroke-width:7.80661249;stroke-linecap:round;stroke-linejoin:round;stroke-miterlimit:10;stroke-dasharray:none;stroke-opacity:1"
         id="path12360-2"
         inkscape:connector-curvature="0" />
      <path
         d="m 202.26943,420.60959 0,-5.66875"
         style="fill:none;stroke:#000000;stroke-width:7.80661249;stroke-linecap:round;stroke-linejoin:round;stroke-miterlimit:10;stroke-dasharray:none;stroke-opacity:1"
         id="path12362-7"
         inkscape:connector-curvature="0" />
      <path
         d="m 183.43406,481.04071 c 0,-2.05762 -1.669,-3.72612 -3.72663,-3.72612 -2.05762,0 -3.726,1.6685 -3.726,3.72612 0,2.05763 1.66838,3.72613 3.726,3.72613 2.05763,0 3.72663,-1.6685 3.72663,-3.72613"
         style="fill:#000000;fill-opacity:1;fill-rule:nonzero;stroke:none"
         id="path12364-1"
         inkscape:connector-curvature="0" />
      <path
         d="m 210.36268,481.04071 c 0,-2.05762 -1.66837,-3.72612 -3.726,-3.72612 -2.05762,0 -3.72612,1.6685 -3.72612,3.72612 0,2.05763 1.6685,3.72613 3.72612,3.72613 2.05763,0 3.726,-1.6685 3.726,-3.72613"
         style="fill:#000000;fill-opacity:1;fill-rule:nonzero;stroke:none"
         id="path12366-8"
         inkscape:connector-curvature="0" />
      <path
         d="m 527.19468,383.83584 7.80664,0 0,-7.80664 -7.80664,0 0,7.80664 z"
         style="fill:#000000;fill-opacity:1;fill-rule:nonzero;stroke:none"
         id="path12368-5"
         inkscape:connector-curvature="0" />
      <path
         d="m 527.19468,392.69459 7.80664,0 0,-7.80664 -7.80664,0 0,7.80664 z"
         style="fill:#000000;fill-opacity:1;fill-rule:nonzero;stroke:none"
         id="path12370-4"
         inkscape:connector-curvature="0" />
      <path
         d="m 527.19468,401.55209 7.80664,0 0,-7.80664 -7.80664,0 0,7.80664 z"
         style="fill:#000000;fill-opacity:1;fill-rule:nonzero;stroke:none"
         id="path12372-0"
         inkscape:connector-curvature="0" />
      <path
         d="m 578.57218,383.83584 7.80664,0 0,-7.80664 -7.80664,0 0,7.80664 z"
         style="fill:#000000;fill-opacity:1;fill-rule:nonzero;stroke:none"
         id="path12374-4"
         inkscape:connector-curvature="0" />
      <path
         d="m 578.57218,401.55209 7.80664,0 0,-7.80664 -7.80664,0 0,7.80664 z"
         style="fill:#000000;fill-opacity:1;fill-rule:nonzero;stroke:none"
         id="path12376-7"
         inkscape:connector-curvature="0" />
      <path
         d="m 549.51718,375.33209 16.3105,0 0,-16.3105 -16.3105,0 0,16.3105 z"
         style="fill:#000000;fill-opacity:1;fill-rule:nonzero;stroke:none"
         id="path12378-5"
         inkscape:connector-curvature="0" />
      <path
         d="m 549.51718,418.56084 16.3105,0 0,-16.3105 -16.3105,0 0,16.3105 z"
         style="fill:#000000;fill-opacity:1;fill-rule:nonzero;stroke:none"
         id="path12380-0"
         inkscape:connector-curvature="0" />
      <path
         d="m 539.47093,466.70622 4.36125,-4.36163 6.17,0 4.36125,4.36163 0,6.169 -4.36125,4.36225 -6.17,0 -4.36125,-4.36225"
         style="fill:#000000;fill-opacity:1;fill-rule:nonzero;stroke:none"
         id="path12382-0"
         inkscape:connector-curvature="0" />
      <path
         d="m 524.59843,482.67497 6.85375,-6.8525 9.69125,0 6.8525,6.8525 0,9.69149 -6.8525,6.85301 -9.69125,0 -6.85375,-6.85301"
         style="fill:#000000;fill-opacity:1;fill-rule:nonzero;stroke:none"
         id="path12384-9"
         inkscape:connector-curvature="0" />
      <path
         d="m 550.09093,494.96746 14.89313,0 0,-14.89312 -14.89313,0 0,14.89312 z"
         style="fill:#000000;fill-opacity:1;fill-rule:nonzero;stroke:none"
         id="path12386-8"
         inkscape:connector-curvature="0" />
      <path
         d="m 434.46218,429.90084 2.32,-2.32 3.28,0 2.32,2.32 0,3.28 -2.32,2.32 -3.28,0 -2.32,-2.32"
         style="fill:#000000;fill-opacity:1;fill-rule:nonzero;stroke:none"
         id="path12388-5"
         inkscape:connector-curvature="0" />
      <path
         d="m 425.46218,429.90084 2.32,-2.32 3.28,0 2.32,2.32 0,3.28 -2.32,2.32 -3.28,0 -2.32,-2.32"
         style="fill:#000000;fill-opacity:1;fill-rule:nonzero;stroke:none"
         id="path12390-8"
         inkscape:connector-curvature="0" />
      <path
         d="m 434.46218,420.90084 2.32,-2.32 3.28,0 2.32,2.32 0,3.28 -2.32,2.32 -3.28,0 -2.32,-2.32"
         style="fill:#000000;fill-opacity:1;fill-rule:nonzero;stroke:none"
         id="path12392-3"
         inkscape:connector-curvature="0" />
      <path
         d="m 425.46218,420.90084 2.32,-2.32 3.28,0 2.32,2.32 0,3.28 -2.32,2.32 -3.28,0 -2.32,-2.32"
         style="fill:#000000;fill-opacity:1;fill-rule:nonzero;stroke:none"
         id="path12394-9"
         inkscape:connector-curvature="0" />
      <path
         d="m 434.46218,411.90084 2.32,-2.32 3.28,0 2.32,2.32 0,3.28 -2.32,2.32 -3.28,0 -2.32,-2.32"
         style="fill:#000000;fill-opacity:1;fill-rule:nonzero;stroke:none"
         id="path12396-7"
         inkscape:connector-curvature="0" />
      <path
         d="m 425.46218,411.90084 2.32,-2.32 3.28,0 2.32,2.32 0,3.28 -2.32,2.32 -3.28,0 -2.32,-2.32"
         style="fill:#000000;fill-opacity:1;fill-rule:nonzero;stroke:none"
         id="path12398-4"
         inkscape:connector-curvature="0" />
      <path
         d="m 443.86843,438.69709 7.1084,0 0,-6.38916 -7.1084,0 0,6.38916 z"
         style="fill:#000000;fill-opacity:1;fill-rule:nonzero;stroke:none"
         id="path12400-2"
         inkscape:connector-curvature="0" />
      <path
         d="m 443.86843,448.77459 7.1084,0 0,-6.38916 -7.1084,0 0,6.38916 z"
         style="fill:#000000;fill-opacity:1;fill-rule:nonzero;stroke:none"
         id="path12402-7"
         inkscape:connector-curvature="0" />
      <path
         d="m 455.13343,490.04071 c 0,-1.77337 -1.4375,-3.21137 -3.21125,-3.21137 -1.77375,0 -3.21125,1.438 -3.21125,3.21137 0,1.7735 1.4375,3.21188 3.21125,3.21188 1.77375,0 3.21125,-1.43838 3.21125,-3.21188"
         style="fill:#000000;fill-opacity:1;fill-rule:nonzero;stroke:none"
         id="path12404-7"
         inkscape:connector-curvature="0" />
      <path
         d="m 464.13343,490.04071 c 0,-1.77337 -1.4375,-3.21137 -3.21125,-3.21137 -1.77375,0 -3.21125,1.438 -3.21125,3.21137 0,1.7735 1.4375,3.21188 3.21125,3.21188 1.77375,0 3.21125,-1.43838 3.21125,-3.21188"
         style="fill:#000000;fill-opacity:1;fill-rule:nonzero;stroke:none"
         id="path12406-4"
         inkscape:connector-curvature="0" />
      <path
         d="m 473.13343,490.04071 c 0,-1.77337 -1.4375,-3.21137 -3.21125,-3.21137 -1.77375,0 -3.21125,1.438 -3.21125,3.21137 0,1.7735 1.4375,3.21188 3.21125,3.21188 1.77375,0 3.21125,-1.43838 3.21125,-3.21188"
         style="fill:#000000;fill-opacity:1;fill-rule:nonzero;stroke:none"
         id="path12408-3"
         inkscape:connector-curvature="0" />
      <path
         d="m 499.17218,446.66084 0,5.76"
         style="fill:none;stroke:#000000;stroke-width:7.92000008;stroke-linecap:round;stroke-linejoin:round;stroke-miterlimit:10;stroke-dasharray:none;stroke-opacity:1"
         id="path12410-5"
         inkscape:connector-curvature="0" />
      <path
         d="m 490.17218,446.66084 0,5.76"
         style="fill:none;stroke:#000000;stroke-width:7.92000008;stroke-linecap:round;stroke-linejoin:round;stroke-miterlimit:10;stroke-dasharray:none;stroke-opacity:1"
         id="path12412-2"
         inkscape:connector-curvature="0" />
      <path
         d="m 481.17218,446.66084 0,5.76"
         style="fill:none;stroke:#000000;stroke-width:7.92000008;stroke-linecap:round;stroke-linejoin:round;stroke-miterlimit:10;stroke-dasharray:none;stroke-opacity:1"
         id="path12414-7"
         inkscape:connector-curvature="0" />
      <path
         d="m 448.72718,421.23584 6.38916,0 0,-6.38916 -6.38916,0 0,6.38916 z"
         style="fill:#000000;fill-opacity:1;fill-rule:nonzero;stroke:none"
         id="path12416-0"
         inkscape:connector-curvature="0" />
      <path
         d="m 331.72718,445.98584 6.38916,0 0,-6.38916 -6.38916,0 0,6.38916 z"
         style="fill:#000000;fill-opacity:1;fill-rule:nonzero;stroke:none"
         id="path12418-8"
         inkscape:connector-curvature="0" />
      <path
         d="m 502.72718,436.98584 6.38916,0 0,-6.38916 -6.38916,0 0,6.38916 z"
         style="fill:#000000;fill-opacity:1;fill-rule:nonzero;stroke:none"
         id="path12420-7"
         inkscape:connector-curvature="0" />
      <path
         d="m 502.72718,508.98559 6.38916,0 0,-6.38916 -6.38916,0 0,6.38916 z"
         style="fill:#000000;fill-opacity:1;fill-rule:nonzero;stroke:none"
         id="path12422-1"
         inkscape:connector-curvature="0" />
      <path
         d="m 330.78218,388.55334 -2.84625,2.8475 -4.02625,0 -2.8475,-2.8475 0,-4.02625 2.8475,-2.84625 4.02625,0 2.84625,2.84625"
         style="fill:#000000;fill-opacity:1;fill-rule:nonzero;stroke:none"
         id="path12424-9"
         inkscape:connector-curvature="0" />
      <path
         d="m 437.65718,498.80396 -2.84625,2.84713 -4.02625,0 -2.8475,-2.84713 0,-4.02637 2.8475,-2.84675 4.02625,0 2.84625,2.84675"
         style="fill:#000000;fill-opacity:1;fill-rule:nonzero;stroke:none"
         id="path12426-6"
         inkscape:connector-curvature="0" />
      <path
         d="m 437.65718,388.55334 -2.84625,2.8475 -4.02625,0 -2.8475,-2.8475 0,-4.02625 2.8475,-2.84625 4.02625,0 2.84625,2.84625"
         style="fill:#000000;fill-opacity:1;fill-rule:nonzero;stroke:none"
         id="path12428-8"
         inkscape:connector-curvature="0" />
    </g>
  </g>
</svg>
